<?xml version="1.0" standalone="no"?>
<!DOCTYPE svg PUBLIC "-//W3C//DTD SVG 20010904//EN"
 "http://www.w3.org/TR/2001/REC-SVG-20010904/DTD/svg10.dtd">
<svg version="1.0" xmlns="http://www.w3.org/2000/svg"
 width="784.000000pt" height="784.000000pt" viewBox="0 0 784.000000 784.000000"
 preserveAspectRatio="xMidYMid meet">
<metadata>
Created by potrace 1.11, written by Peter Selinger 2001-2013
</metadata>
<g transform="translate(0.000000,784.000000) scale(0.100000,-0.100000)"
fill="#000000" stroke="none">
<path d="M2807 7824 c-218 -43 -377 -241 -372 -464 6 -289 259 -494 555 -447
121 19 264 127 322 244 12 24 26 43 32 44 20 1 70 7 111 13 22 3 58 8 80 10
229 29 616 25 845 -9 56 -8 116 -18 135 -21 11 -2 34 -7 50 -10 17 -3 50 -10
75 -15 25 -6 53 -12 62 -14 112 -23 415 -123 548 -181 113 -49 292 -140 379
-193 46 -28 86 -51 88 -51 3 0 100 -66 188 -129 55 -39 133 -100 210 -164 74
-62 334 -323 393 -394 28 -34 55 -68 61 -75 276 -333 517 -816 634 -1268 22
-83 29 -115 43 -190 9 -47 26 -149 30 -175 2 -16 6 -46 9 -65 27 -194 27 -631
0 -840 -4 -34 -8 -56 -21 -130 -4 -19 -8 -42 -9 -50 -1 -8 -6 -35 -11 -60 -4
-25 -9 -49 -9 -55 -1 -5 -4 -19 -8 -30 -3 -11 -8 -31 -11 -45 -11 -60 -47
-183 -81 -280 -20 -58 -42 -121 -48 -140 -6 -19 -14 -37 -17 -40 -3 -3 -6 -11
-7 -17 -10 -50 -159 -348 -241 -483 -44 -72 -199 -300 -211 -310 -3 -3 -24
-27 -46 -55 -126 -157 -280 -319 -420 -438 -38 -33 -71 -64 -73 -69 -2 -4 -8
-8 -13 -8 -6 0 -20 -10 -33 -23 -13 -12 -58 -47 -101 -77 -42 -30 -82 -60 -89
-66 -7 -7 -80 -52 -162 -102 -180 -108 -372 -202 -554 -270 -157 -59 -172 -64
-185 -67 -5 -2 -41 -12 -80 -23 -80 -24 -238 -62 -275 -67 -14 -2 -25 -4 -25
-5 0 -1 -11 -3 -25 -6 -14 -2 -41 -7 -60 -10 -44 -9 -60 -11 -135 -18 -33 -4
-89 -10 -125 -14 -133 -15 -596 -7 -700 12 -14 3 -47 7 -75 10 -27 3 -86 12
-130 21 -44 9 -91 18 -105 21 -38 7 -151 35 -185 45 -83 24 -343 113 -379 129
-23 10 -70 31 -106 46 -62 28 -178 86 -270 136 -64 34 -114 65 -204 125 -43
29 -81 53 -82 53 -2 0 -12 7 -21 15 -10 8 -45 34 -78 59 -33 25 -69 54 -81 63
-11 10 -43 36 -70 58 -55 45 -196 178 -258 244 -23 23 -59 62 -81 85 -22 23
-49 54 -60 68 -208 271 -235 308 -329 466 -76 126 -186 352 -239 487 -45 117
-120 347 -130 405 -3 14 -8 32 -11 40 -3 8 -8 26 -10 40 -3 14 -10 50 -16 80
-6 30 -13 70 -16 89 -3 18 -8 43 -10 55 -23 119 -38 332 -38 536 1 144 9 345
15 345 1 0 3 11 4 25 4 49 15 135 20 160 3 14 8 41 11 60 23 139 99 436 133
515 5 11 26 65 46 120 45 119 140 317 207 434 26 46 48 86 48 88 0 2 5 9 11
16 5 7 39 56 74 110 l63 97 -60 138 c-33 75 -69 157 -79 182 -11 25 -26 58
-34 73 -8 16 -15 35 -15 44 0 25 -23 9 -68 -48 -24 -30 -50 -62 -57 -71 -8 -9
-22 -29 -32 -45 -9 -15 -20 -30 -24 -33 -12 -11 -109 -160 -109 -169 0 -5 -4
-11 -8 -13 -10 -3 -112 -176 -112 -188 0 -4 -7 -13 -15 -20 -8 -7 -13 -16 -10
-20 3 -5 2 -10 -2 -12 -5 -1 -30 -48 -57 -103 -182 -370 -316 -812 -362 -1187
-2 -24 -7 -52 -9 -63 -26 -126 -27 -730 -1 -871 2 -10 7 -46 10 -79 4 -33 9
-71 11 -85 9 -59 16 -96 20 -110 2 -8 6 -31 9 -51 3 -20 10 -48 15 -62 5 -14
8 -27 5 -29 -2 -3 2 -24 10 -47 9 -23 14 -42 14 -44 -4 -5 46 -185 62 -222 4
-11 15 -42 23 -70 20 -68 100 -273 126 -322 11 -22 18 -43 15 -45 -2 -3 2 -11
11 -18 8 -7 15 -18 15 -24 0 -14 133 -268 161 -308 11 -14 19 -30 19 -35 0 -6
9 -18 20 -28 11 -10 18 -20 16 -22 -5 -5 115 -185 146 -219 10 -11 18 -26 18
-32 0 -7 3 -12 8 -12 4 0 18 -17 32 -37 14 -20 32 -44 40 -52 9 -9 36 -41 60
-71 75 -92 109 -129 246 -265 133 -133 162 -159 249 -230 27 -22 57 -48 67
-58 10 -9 22 -17 27 -17 5 0 11 -4 13 -8 2 -4 55 -45 118 -90 156 -111 159
-112 167 -114 5 -2 37 -22 72 -45 35 -24 70 -43 77 -43 8 0 14 -3 14 -7 0 -5
10 -13 23 -19 12 -6 76 -39 142 -72 129 -65 237 -115 294 -137 89 -33 327
-117 341 -120 8 -2 67 -17 130 -34 63 -17 126 -32 140 -35 14 -3 36 -7 50 -11
353 -79 899 -102 1235 -51 22 3 60 8 85 11 25 3 56 7 70 10 14 2 41 7 60 10
28 5 143 30 230 50 226 52 510 153 730 258 58 28 108 51 112 51 4 1 13 7 19
13 7 7 17 13 21 13 20 0 388 226 441 270 14 12 92 70 115 85 8 6 31 25 51 42
20 18 39 33 42 33 3 0 22 15 41 32 20 18 66 60 103 93 77 69 305 300 305 310
0 2 16 21 35 42 104 111 320 417 418 593 43 77 175 340 171 340 -3 0 2 12 10
28 22 40 56 119 56 131 0 6 7 27 16 48 20 45 28 67 42 108 6 17 13 39 18 50 4
11 8 27 10 36 2 9 9 29 15 45 7 16 12 32 11 36 -1 4 5 25 13 47 8 23 13 41 11
41 -2 0 2 21 10 48 28 88 46 184 89 462 4 27 15 141 21 230 5 68 5 417 0 485
-4 52 -15 176 -20 217 -12 91 -19 146 -22 163 -3 11 -7 35 -10 54 -6 38 -6 37
-29 141 -9 41 -19 86 -21 99 -3 13 -9 32 -14 41 -5 10 -7 20 -5 22 3 3 -2 21
-10 41 -8 21 -13 37 -10 37 3 0 -1 14 -10 30 -9 17 -13 30 -11 30 3 0 0 15 -6
33 -20 62 -70 202 -84 234 -8 17 -14 34 -14 38 0 3 -10 27 -21 53 -12 26 -30
67 -41 92 -55 122 -152 308 -212 405 -17 28 -38 62 -45 78 -8 15 -18 27 -23
27 -4 0 -8 4 -8 9 0 6 -15 31 -32 57 -18 25 -37 53 -43 63 -5 9 -12 18 -15 21
-3 3 -37 48 -77 100 -39 52 -81 106 -93 120 -12 14 -43 49 -68 79 -85 99 -323
333 -419 411 -68 56 -133 108 -157 125 -15 11 -47 34 -70 51 -49 37 -231 156
-266 174 -14 7 -27 16 -30 19 -8 10 -47 31 -215 116 -159 80 -190 94 -302 139
-32 13 -67 27 -78 31 -11 4 -24 9 -30 11 -5 1 -23 7 -40 14 -16 6 -32 12 -35
12 -3 0 -30 10 -60 20 -30 11 -65 21 -77 23 -12 2 -27 6 -32 10 -9 5 -162 47
-226 61 -30 7 -235 44 -275 50 -19 3 -46 7 -60 9 -38 7 -108 15 -180 22 -84 7
-630 10 -630 3 0 -3 -10 -5 -22 -6 -13 0 -59 -4 -103 -9 -44 -4 -91 -9 -105
-11 -14 -1 -25 -3 -25 -4 0 -1 -20 -3 -45 -5 -41 -4 -47 -1 -85 40 -53 58
-120 103 -170 115 -5 1 -21 7 -35 12 -62 24 -142 28 -223 12z"/>
<path d="M904 7546 c17 -40 133 -308 156 -361 10 -22 41 -94 70 -160 29 -66
60 -138 70 -160 10 -22 77 -177 150 -345 73 -168 140 -323 150 -345 10 -22 32
-74 50 -115 18 -41 42 -95 53 -120 11 -25 22 -49 23 -55 2 -5 39 -93 84 -195
44 -102 84 -194 89 -205 5 -11 19 -42 31 -70 19 -42 80 -183 136 -312 8 -18
15 -36 15 -40 0 -5 7 -19 15 -33 8 -14 39 -83 70 -155 63 -148 80 -186 102
-235 9 -19 17 -37 18 -40 0 -3 9 -23 18 -45 107 -243 206 -475 206 -484 0 -6
5 -11 10 -11 6 0 10 -6 10 -13 0 -11 96 -237 174 -412 8 -16 74 -167 146 -335
73 -168 140 -321 148 -340 9 -19 16 -37 17 -40 1 -5 9 -23 51 -115 10 -22 19
-42 19 -45 0 -3 11 -27 23 -54 12 -27 22 -50 22 -52 0 -3 18 -43 40 -90 22
-47 40 -89 40 -93 0 -4 16 -40 35 -80 19 -39 35 -76 35 -80 0 -5 7 -22 15 -38
19 -37 75 -162 75 -167 0 -3 13 -33 29 -68 16 -35 41 -92 56 -128 15 -36 38
-89 51 -118 13 -29 24 -54 24 -56 0 -2 10 -25 22 -52 12 -27 21 -52 20 -56 -1
-5 2 -8 6 -8 4 0 14 -17 21 -37 7 -21 25 -63 38 -93 14 -30 32 -73 41 -95 27
-69 6 -66 325 -63 l290 3 48 110 c26 61 57 130 68 155 11 25 45 104 76 175 31
72 65 148 75 170 10 23 20 47 22 55 2 8 6 17 9 20 3 3 20 40 37 82 18 42 46
107 63 145 16 37 34 77 39 88 5 11 19 43 31 70 13 28 23 52 24 55 0 3 6 14 12
25 6 11 12 23 12 27 2 8 32 81 56 133 8 16 46 104 86 195 39 91 80 185 91 210
11 25 27 61 35 80 9 19 24 53 33 75 10 22 42 94 70 160 52 120 80 184 105 240
7 17 50 116 95 220 45 105 92 213 105 240 13 28 35 78 49 113 35 84 84 193 96
214 6 10 10 25 10 33 0 8 5 15 12 15 6 0 9 3 6 6 -5 4 22 68 117 282 43 95 59
135 57 145 -1 4 2 7 6 7 5 0 15 19 22 43 8 23 20 49 27 58 7 8 13 23 13 32 0
9 5 19 10 22 6 3 10 15 10 26 0 10 4 19 8 19 5 0 9 6 9 13 0 6 10 33 21 59 12
26 22 52 22 57 0 6 5 11 10 11 6 0 10 7 10 15 0 8 4 23 9 33 5 9 19 40 32 67
12 28 31 70 42 95 11 25 21 47 21 50 1 3 14 34 31 70 16 36 30 67 30 70 2 7
19 46 46 105 12 28 23 52 24 55 1 3 9 23 18 45 10 22 18 45 20 50 1 7 -129 10
-375 10 l-378 0 -20 -47 c-37 -85 -43 -103 -42 -110 1 -5 -3 -8 -8 -8 -6 0
-10 -8 -10 -18 0 -10 -3 -22 -7 -26 -4 -3 -12 -21 -19 -39 -9 -26 -120 -284
-190 -442 -9 -22 -18 -42 -19 -45 -3 -7 -34 -79 -50 -115 -7 -16 -45 -106 -85
-200 -73 -173 -89 -209 -121 -280 -17 -38 -41 -95 -44 -105 -1 -3 -8 -21 -17
-40 -8 -19 -50 -116 -92 -215 -87 -203 -84 -196 -125 -288 -17 -38 -31 -70
-31 -73 0 -4 -16 -41 -66 -152 -13 -29 -24 -54 -24 -56 0 -2 -8 -21 -17 -42
-9 -22 -17 -41 -18 -44 -1 -3 -11 -27 -23 -53 -12 -27 -22 -50 -22 -52 0 -2
-14 -34 -31 -72 -41 -92 -43 -97 -79 -183 -17 -41 -42 -99 -56 -128 -13 -29
-24 -54 -24 -56 0 -2 -12 -30 -27 -62 -14 -33 -28 -68 -30 -79 -2 -11 -8 -21
-13 -23 -6 -2 -10 -8 -10 -14 0 -5 -14 -42 -32 -81 -17 -40 -31 -78 -31 -84 0
-7 -4 -13 -9 -13 -4 0 -8 -5 -8 -11 0 -5 -10 -31 -21 -57 -41 -90 -66 -147
-79 -181 l-13 -33 -18 33 c-10 19 -18 42 -19 52 0 9 -4 17 -10 17 -5 0 -10 6
-10 13 0 8 -6 27 -14 43 -8 16 -33 74 -56 129 -23 55 -50 118 -60 140 -15 35
-44 103 -85 200 -7 17 -23 53 -35 80 -12 28 -28 64 -35 80 -42 100 -70 165
-85 200 -10 22 -39 90 -64 150 -26 61 -53 124 -61 140 -8 17 -28 62 -44 100
-16 39 -37 88 -47 110 -9 22 -18 42 -19 45 -8 24 -77 183 -116 268 -16 35 -29
66 -29 68 0 3 -9 24 -19 47 -10 23 -38 87 -61 142 -23 55 -50 118 -60 140 -10
22 -30 69 -45 105 -15 36 -36 85 -47 110 -24 53 -13 27 -172 400 -70 162 -131
304 -136 315 -24 51 -69 156 -69 160 -1 3 -14 35 -31 71 -16 37 -30 72 -30 78
0 7 -4 16 -8 22 -5 5 -33 65 -61 134 -29 69 -61 143 -71 165 -44 97 -60 135
-60 140 0 2 -12 30 -26 62 -35 80 -49 112 -101 233 -25 58 -56 129 -69 158
-13 29 -24 55 -24 58 0 3 -12 31 -26 62 -31 68 -46 104 -49 117 -2 6 -16 39
-33 75 -16 36 -42 94 -57 130 -15 36 -38 89 -51 118 -13 29 -24 55 -24 57 0 2
-11 29 -25 59 -27 59 -48 108 -49 116 -1 3 -9 21 -18 41 l-18 36 -384 0 -385
0 13 -31z"/>
</g>
</svg>
