<?xml version="1.0" encoding="UTF-8"?>
<svg width="113px" height="160px" viewBox="0 0 113 160" version="1.1" xmlns="http://www.w3.org/2000/svg" xmlns:xlink="http://www.w3.org/1999/xlink">
    <!-- Generator: Sketch 58 (84663) - https://sketch.com -->
    <title>Group 2</title>
    <desc>Created with Sketch.</desc>
    <g id="Solo-web" stroke="none" stroke-width="1" fill="none" fill-rule="evenodd">
        <g id="soloweb_login_rebranding" transform="translate(-664.000000, -124.000000)">
            <g id="Group-3" transform="translate(525.000000, 124.000000)">
                <g id="Group-2" transform="translate(139.000000, 0.000000)">
                    <g id="VIL_021-New-Brand-2019_lettermark-(1)" transform="translate(0.000000, -0.000000)">
                        <path d="M56.4365562,2.12730384 C53.2957193,2.12730384 50.1418567,2.39179265 47.0531229,2.91507358 C45.7790405,1.10352869 43.6835211,0 41.4553017,0 C37.6810871,0 34.6102637,3.068884 34.6102637,6.84252895 C34.6102637,10.6161739 37.6810871,13.6850579 41.4553017,13.6850579 C44.2713086,13.6850579 46.7616715,11.9866328 47.8012901,9.4076635 C50.6864964,8.89740355 53.5896131,8.63779761 56.4365562,8.63779761 C83.964876,8.63779761 106.361045,31.0257581 106.361045,58.5448014 C106.361045,86.0622171 83.964876,108.450178 56.4365562,108.450178 C28.9082364,108.450178 6.512881,86.0622171 6.512881,58.5448014 C6.512881,48.0295402 9.74734053,38.0294217 15.8702628,29.5169511 L12.907716,22.7069746 C4.58506822,32.7949847 0,45.4904476 0,58.5448014 C0,89.6519406 25.3171967,114.960671 56.4365562,114.960671 C87.5559157,114.960671 112.873926,89.6519406 112.873926,58.5448014 C112.873926,27.4360346 87.5559157,2.12730384 56.4365562,2.12730384" id="Fill-1" fill="#DF5833"></path>
                        <polyline id="Fill-2" fill="#252525" points="78.4007642 28.6688329 56.168717 80.5586586 23.2637939 3.79408156 11.9513569 3.79408156 51.8013599 95.6108554 60.3558933 95.6108554 89.5403249 28.6688329 78.4007642 28.6688329"></polyline>
                    </g>
                    <path d="M11.6565568,159.372757 C6.77772291,159.372757 2.89224284,158.058121 1.42108547e-14,155.428809 L1.3584709,152.668046 C2.90684333,153.982701 4.48440667,154.917554 6.09120824,155.472631 C7.69800982,156.027708 9.56771452,156.305242 11.7003784,156.305242 C14.2128318,156.305242 16.1482683,155.815905 17.506746,154.837217 C18.8652237,153.858529 19.5444524,152.478161 19.5444524,150.696072 C19.5444524,149.644347 19.2157933,148.789834 18.5584654,148.132506 C17.9011375,147.475178 17.0393205,146.956627 15.9729885,146.576837 C14.9066566,146.197048 13.4824674,145.802657 11.7003784,145.393653 C9.30478335,144.867791 7.33282918,144.298115 5.78445675,143.684609 C4.23608432,143.071103 2.97987648,142.187375 2.01579553,141.0334 C1.05171459,139.879424 0.569681347,138.367592 0.569681347,136.49786 C0.569681347,134.715771 1.03710752,133.145511 1.97197389,131.787033 C2.90684026,130.428555 4.22877991,129.369543 5.9378325,128.609964 C7.64688508,127.850385 9.64074986,127.470601 11.9194866,127.470601 C14.0813651,127.470601 16.0971405,127.806564 17.9668732,128.478499 C19.836606,129.150434 21.4141693,130.129108 22.6996106,131.414549 L21.297318,134.175313 C19.8365893,132.919086 18.3539719,131.998841 16.8494214,131.414549 C15.3448708,130.830258 13.7015757,130.538116 11.9194866,130.538116 C9.49467699,130.538116 7.59575815,131.056667 6.22267317,132.093785 C4.84958819,133.130902 4.16305599,134.555091 4.16305599,136.366395 C4.16305599,137.943982 4.76194578,139.127154 5.95974332,139.915948 C7.15754086,140.704741 8.99803142,141.391273 11.4812702,141.975565 C14.169011,142.618286 16.2797324,143.209872 17.8134975,143.750341 C19.3472626,144.290811 20.6253811,145.108807 21.6478912,146.204353 C22.6704013,147.2999 23.1816486,148.753303 23.1816486,150.564607 C23.1816486,152.317481 22.7142225,153.858527 21.7793561,155.18779 C20.8444897,156.517053 19.507943,157.546851 17.7696759,158.277216 C16.0314087,159.00758 13.9937227,159.372757 11.6565568,159.372757 Z M42.112598,159.372757 C39.2203552,159.372757 36.7079395,158.730046 34.5752756,157.444605 C32.4426117,156.159163 30.7993165,154.311369 29.6453408,151.901167 C28.4913652,149.490964 27.914386,146.664497 27.914386,143.421679 C27.914386,140.149647 28.4840616,137.315876 29.62343,134.920281 C30.7627984,132.524685 32.39879,130.684195 34.5314539,129.398754 C36.6641178,128.113312 39.1911406,127.470601 42.112598,127.470601 C45.0340554,127.470601 47.5610782,128.113312 49.6937421,129.398754 C51.826406,130.684195 53.4623976,132.524685 54.601766,134.920281 C55.7411344,137.315876 56.31081,140.13504 56.31081,143.377857 C56.31081,146.64989 55.7338308,149.483661 54.5798552,151.879256 C53.4258795,154.274851 51.7825843,156.122645 49.6499204,157.422694 C47.5172565,158.722742 45.0048408,159.372757 42.112598,159.372757 Z M42.112598,156.305242 C45.4138449,156.305242 47.9846888,155.180498 49.825207,152.930975 C51.6657252,150.681453 52.5859705,147.497112 52.5859705,143.377857 C52.5859705,139.258603 51.6730287,136.088869 49.8471178,133.868561 C48.0212069,131.648253 45.4430595,130.538116 42.112598,130.538116 C38.7821366,130.538116 36.1966855,131.655557 34.3561674,133.890472 C32.5156492,136.125387 31.5954039,139.287817 31.5954039,143.377857 C31.5954039,147.497112 32.5156492,150.681453 34.3561674,152.930975 C36.1966855,155.180498 38.7821366,156.305242 42.112598,156.305242 Z M62.8840563,159.022184 L62.8840563,127.821175 L66.477431,127.821175 L66.477431,155.954669 L82.1217572,155.954669 L82.1217572,159.022184 L62.8840563,159.022184 Z M98.2042998,159.372757 C95.312057,159.372757 92.7996413,158.730046 90.6669774,157.444605 C88.5343135,156.159163 86.8910183,154.311369 85.7370427,151.901167 C84.583067,149.490964 84.0060878,146.664497 84.0060878,143.421679 C84.0060878,140.149647 84.5757635,137.315876 85.7151318,134.920281 C86.8545002,132.524685 88.4904918,130.684195 90.6231558,129.398754 C92.7558197,128.113312 95.2828424,127.470601 98.2042998,127.470601 C101.125757,127.470601 103.65278,128.113312 105.785444,129.398754 C107.918108,130.684195 109.554099,132.524685 110.693468,134.920281 C111.832836,137.315876 112.402512,140.13504 112.402512,143.377857 C112.402512,146.64989 111.825533,149.483661 110.671557,151.879256 C109.517581,154.274851 107.874286,156.122645 105.741622,157.422694 C103.608958,158.722742 101.096543,159.372757 98.2042998,159.372757 Z M98.2042998,156.305242 C101.505547,156.305242 104.076391,155.180498 105.916909,152.930975 C107.757427,150.681453 108.677672,147.497112 108.677672,143.377857 C108.677672,139.258603 107.764731,136.088869 105.93882,133.868561 C104.112909,131.648253 101.534761,130.538116 98.2042998,130.538116 C94.8738384,130.538116 92.2883874,131.655557 90.4478692,133.890472 C88.607351,136.125387 87.6871057,139.287817 87.6871057,143.377857 C87.6871057,147.497112 88.607351,150.681453 90.4478692,152.930975 C92.2883874,155.180498 94.8738384,156.305242 98.2042998,156.305242 Z" id="SOLO" fill="#252525" fill-rule="nonzero"></path>
                </g>
            </g>
        </g>
    </g>
</svg>